<svg xmlns="http://www.w3.org/2000/svg" xmlns:xlink="http://www.w3.org/1999/xlink" width="73.3333740234375" height="66.00988006591797" viewBox="0 0 73.3333740234375 66.00988006591797" fill="none">
  <path d="M6.66667 35.736C6.66667 33.895 5.17428 32.4027 3.33334 32.4027C1.49239 32.4027 0 33.895 0 35.736L0 49.0693C0 50.9103 1.49239 52.4027 3.33334 52.4027C5.17428 52.4027 6.66667 50.9103 6.66667 49.0693L6.66667 35.736Z"   fill="#FFFFFF" >
  </path>
  <path d="M70 32.4027C71.841 32.4027 73.3334 33.895 73.3334 35.736L73.3334 49.0693C73.3334 50.9103 71.841 52.4027 70 52.4027C68.1591 52.4027 66.6667 50.9103 66.6667 49.0693L66.6667 35.736C66.6667 33.895 68.1591 32.4027 70 32.4027Z"   fill="#FFFFFF" >
  </path>
  <path d="M29.5587 6.60396C29.5587 2.95851 32.5178 0 36.1762 0C39.8347 0 42.8037 2.95851 42.8037 6.60396C42.8037 9.04714 41.4749 11.1755 39.4949 12.3168L39.4949 19.802L56.7145 19.802C60.373 19.802 63.342 22.7605 63.342 26.4059L63.342 59.4059C63.342 63.0514 60.373 66.0099 56.7145 66.0099L15.6479 66.0099C11.9894 66.0099 9.02037 63.0514 9.02037 59.4059L9.02037 26.4059C9.02037 22.7605 11.9894 19.802 15.6479 19.802L32.8674 19.802L32.8674 12.3168C30.8874 11.1755 29.5587 9.04714 29.5587 6.60396ZM24.0303 39.4006C25.9457 39.4006 27.4949 37.8369 27.4949 35.9038C27.4949 33.9705 25.9457 32.4069 24.0303 32.4069C22.115 32.4069 20.5658 33.9705 20.5658 35.9038C20.5658 37.8369 22.115 39.4006 24.0303 39.4006ZM51.778 35.9038C51.778 37.8369 50.2183 39.4006 48.303 39.4006C46.3876 39.4006 44.8385 37.8369 44.8385 35.9038C44.8385 33.9705 46.3876 32.4069 48.303 32.4069C50.2183 32.4069 51.778 33.9705 51.778 35.9038ZM29.2324 46.4048C27.317 46.4048 25.7678 47.9684 25.7678 49.9016C25.7678 51.8349 27.317 53.409 29.2324 53.409L43.101 53.409C45.0164 53.409 46.5759 51.8349 46.5759 49.9016C46.5759 47.9684 45.0164 46.4048 43.101 46.4048L29.2324 46.4048Z" fill-rule="evenodd"  fill="#FFFFFF" >
  </path>
</svg>
